<svg width="32" height="32" viewBox="0 0 32 32" fill="none" xmlns="http://www.w3.org/2000/svg">
<rect width="32" height="32" rx="16" fill="white"/>
<path d="M14.5455 11.6363H17.4546V14.5454H14.5455V11.6363ZM21.8182 1.45453V2.90907H24.7273V4.36362H26.1819V5.81817H27.6364V7.27271H29.091V10.1818H30.5455V21.8182H29.091V24.7273H27.6364V26.1818H26.1819V27.6363H24.7273V29.0909H21.8182V30.5454H10.1819V29.0909H7.27277V27.6363H5.81823V26.1818H4.36368V24.7273H2.90914V21.8182H1.45459V10.1818H2.90914V7.27271H4.36368V5.81817H5.81823V4.36362H7.27277V2.90907H10.1819V1.45453H21.8182ZM18.9091 8.72726H13.091V10.1818H11.6364V23.2727H14.5455V17.4545H17.4546V23.2727H20.3637V10.1818H18.9091V8.72726Z" fill="#0406B0"/>
</svg>
